<?xml version="1.0" standalone="no"?><!DOCTYPE svg PUBLIC "-//W3C//DTD SVG 1.1//EN" "http://www.w3.org/Graphics/SVG/1.1/DTD/svg11.dtd"><svg t="1643689794989" class="icon" viewBox="0 0 1024 1024" version="1.1" xmlns="http://www.w3.org/2000/svg" p-id="9008" xmlns:xlink="http://www.w3.org/1999/xlink" width="200" height="200"><defs><style type="text/css"></style></defs><path d="M472.615385 866.461538h78.76923v78.769231h-78.76923z" fill="#FFFFFF" p-id="9009"></path><path d="M157.538462 866.461538h78.76923v78.769231H157.538462zM787.692308 866.461538h78.76923v78.769231h-78.76923zM945.230769 630.153846h78.769231v78.769231h-78.769231zM945.230769 551.384615h78.769231v78.769231h-78.769231zM945.230769 472.615385h78.769231v78.76923h-78.769231zM945.230769 393.846154h78.769231v78.769231h-78.769231zM945.230769 315.076923h78.769231v78.769231h-78.769231zM866.461538 708.923077h78.769231v78.769231h-78.769231z" fill="#1E2028" p-id="9010"></path><path d="M866.461538 630.153846h78.769231v78.769231h-78.769231zM866.461538 551.384615h78.769231v78.769231h-78.769231zM866.461538 472.615385h78.769231v78.76923h-78.769231zM866.461538 393.846154h78.769231v78.769231h-78.769231zM866.461538 315.076923h78.769231v78.769231h-78.769231z" fill="#FF9343" p-id="9011"></path><path d="M866.461538 236.307692h78.769231v78.769231h-78.769231zM866.461538 157.538462h78.769231v78.76923h-78.769231zM866.461538 78.769231h78.769231v78.769231h-78.769231zM866.461538 0h78.769231v78.769231h-78.769231zM787.692308 787.692308h78.76923v78.76923h-78.76923z" fill="#1E2028" p-id="9012"></path><path d="M787.692308 708.923077h78.76923v78.769231h-78.76923z" fill="#FF9343" p-id="9013"></path><path d="M787.692308 630.153846h78.76923v78.769231h-78.76923zM787.692308 551.384615h78.76923v78.769231h-78.76923zM787.692308 472.615385h78.76923v78.76923h-78.76923zM787.692308 393.846154h78.76923v78.769231h-78.76923zM787.692308 315.076923h78.76923v78.769231h-78.76923z" fill="#FFDD4D" p-id="9014"></path><path d="M787.692308 236.307692h78.76923v78.769231h-78.76923zM787.692308 157.538462h78.76923v78.76923h-78.76923zM787.692308 78.769231h78.76923v78.769231h-78.76923z" fill="#FF9343" p-id="9015"></path><path d="M787.692308 0h78.76923v78.769231h-78.76923zM708.923077 787.692308h78.769231v78.76923h-78.769231z" fill="#1E2028" p-id="9016"></path><path d="M708.923077 708.923077h78.769231v78.769231h-78.769231z" fill="#FF9343" p-id="9017"></path><path d="M708.923077 630.153846h78.769231v78.769231h-78.769231zM708.923077 551.384615h78.769231v78.769231h-78.769231zM708.923077 472.615385h78.769231v78.76923h-78.769231zM708.923077 393.846154h78.769231v78.769231h-78.769231zM708.923077 315.076923h78.769231v78.769231h-78.769231zM708.923077 236.307692h78.769231v78.769231h-78.769231zM708.923077 157.538462h78.769231v78.76923h-78.769231z" fill="#FFDD4D" p-id="9018"></path><path d="M708.923077 78.769231h78.769231v78.769231h-78.769231zM630.153846 787.692308h78.769231v78.76923h-78.769231z" fill="#1E2028" p-id="9019"></path><path d="M630.153846 708.923077h78.769231v78.769231h-78.769231z" fill="#FF9343" p-id="9020"></path><path d="M630.153846 630.153846h78.769231v78.769231h-78.769231z" fill="#FFDD4D" p-id="9021"></path><path d="M630.153846 551.384615h78.769231v78.769231h-78.769231zM630.153846 472.615385h78.769231v78.76923h-78.769231z" fill="#1E2028" p-id="9022"></path><path d="M630.153846 393.846154h78.769231v78.769231h-78.769231z" fill="#FFDD4D" p-id="9023"></path><path d="M630.153846 315.076923h78.769231v78.769231h-78.769231zM630.153846 236.307692h78.769231v78.769231h-78.769231z" fill="#FF9343" p-id="9024"></path><path d="M630.153846 157.538462h78.769231v78.76923h-78.769231zM551.384615 787.692308h78.769231v78.76923h-78.769231z" fill="#1E2028" p-id="9025"></path><path d="M551.384615 708.923077h78.769231v78.769231h-78.769231z" fill="#FF9343" p-id="9026"></path><path d="M551.384615 630.153846h78.769231v78.769231h-78.769231zM551.384615 551.384615h78.769231v78.769231h-78.769231zM551.384615 472.615385h78.769231v78.76923h-78.769231zM551.384615 393.846154h78.769231v78.769231h-78.769231zM551.384615 315.076923h78.769231v78.769231h-78.769231zM551.384615 236.307692h78.769231v78.769231h-78.769231z" fill="#FFDD4D" p-id="9027"></path><path d="M551.384615 157.538462h78.769231v78.76923h-78.769231zM472.615385 787.692308h78.76923v78.76923h-78.76923z" fill="#1E2028" p-id="9028"></path><path d="M472.615385 708.923077h78.76923v78.769231h-78.76923z" fill="#FF9343" p-id="9029"></path><path d="M472.615385 630.153846h78.76923v78.769231h-78.76923z" fill="#1E2028" p-id="9030"></path><path d="M472.615385 551.384615h78.76923v78.769231h-78.76923zM472.615385 472.615385h78.76923v78.76923h-78.76923zM472.615385 393.846154h78.76923v78.769231h-78.76923z" fill="#FFDD4D" p-id="9031"></path><path d="M472.615385 315.076923h78.76923v78.769231h-78.76923zM472.615385 236.307692h78.76923v78.769231h-78.76923z" fill="#FF9343" p-id="9032"></path><path d="M472.615385 157.538462h78.76923v78.76923h-78.76923zM393.846154 787.692308h78.769231v78.76923h-78.769231z" fill="#1E2028" p-id="9033"></path><path d="M393.846154 708.923077h78.769231v78.769231h-78.769231z" fill="#FF9343" p-id="9034"></path><path d="M393.846154 630.153846h78.769231v78.769231h-78.769231zM393.846154 551.384615h78.769231v78.769231h-78.769231zM393.846154 472.615385h78.769231v78.76923h-78.769231zM393.846154 393.846154h78.769231v78.769231h-78.769231zM393.846154 315.076923h78.769231v78.769231h-78.769231zM393.846154 236.307692h78.769231v78.769231h-78.769231z" fill="#FFDD4D" p-id="9035"></path><path d="M393.846154 157.538462h78.769231v78.76923h-78.769231zM315.076923 787.692308h78.769231v78.76923h-78.769231z" fill="#1E2028" p-id="9036"></path><path d="M315.076923 708.923077h78.769231v78.769231h-78.769231z" fill="#FF9343" p-id="9037"></path><path d="M315.076923 630.153846h78.769231v78.769231h-78.769231z" fill="#FFDD4D" p-id="9038"></path><path d="M315.076923 551.384615h78.769231v78.769231h-78.769231zM315.076923 472.615385h78.769231v78.76923h-78.769231z" fill="#1E2028" p-id="9039"></path><path d="M315.076923 393.846154h78.769231v78.769231h-78.769231z" fill="#FFDD4D" p-id="9040"></path><path d="M315.076923 315.076923h78.769231v78.769231h-78.769231zM315.076923 236.307692h78.769231v78.769231h-78.769231z" fill="#FF9343" p-id="9041"></path><path d="M315.076923 157.538462h78.769231v78.76923h-78.769231zM236.307692 787.692308h78.769231v78.76923h-78.769231z" fill="#1E2028" p-id="9042"></path><path d="M236.307692 708.923077h78.769231v78.769231h-78.769231z" fill="#FFF1B6" p-id="9043"></path><path d="M236.307692 630.153846h78.769231v78.769231h-78.769231zM236.307692 551.384615h78.769231v78.769231h-78.769231zM236.307692 472.615385h78.769231v78.76923h-78.769231zM236.307692 393.846154h78.769231v78.769231h-78.769231zM236.307692 315.076923h78.769231v78.769231h-78.769231zM236.307692 236.307692h78.769231v78.769231h-78.769231zM236.307692 157.538462h78.769231v78.76923h-78.769231z" fill="#FFDD4D" p-id="9044"></path><path d="M236.307692 78.769231h78.769231v78.769231h-78.769231zM157.538462 787.692308h78.76923v78.76923H157.538462z" fill="#1E2028" p-id="9045"></path><path d="M157.538462 708.923077h78.76923v78.769231H157.538462z" fill="#FFF1B6" p-id="9046"></path><path d="M157.538462 630.153846h78.76923v78.769231H157.538462zM157.538462 551.384615h78.76923v78.769231H157.538462zM157.538462 472.615385h78.76923v78.76923H157.538462zM157.538462 393.846154h78.76923v78.769231H157.538462zM157.538462 315.076923h78.76923v78.769231H157.538462z" fill="#FFDD4D" p-id="9047"></path><path d="M157.538462 236.307692h78.76923v78.769231H157.538462zM157.538462 157.538462h78.76923v78.76923H157.538462zM157.538462 78.769231h78.76923v78.769231H157.538462z" fill="#FFF1B6" p-id="9048"></path><path d="M157.538462 0h78.76923v78.769231H157.538462zM78.769231 708.923077h78.769231v78.769231H78.769231z" fill="#1E2028" p-id="9049"></path><path d="M78.769231 630.153846h78.769231v78.769231H78.769231zM78.769231 551.384615h78.769231v78.769231H78.769231zM78.769231 472.615385h78.769231v78.76923H78.769231zM78.769231 393.846154h78.769231v78.769231H78.769231zM78.769231 315.076923h78.769231v78.769231H78.769231z" fill="#FFF1B6" p-id="9050"></path><path d="M78.769231 236.307692h78.769231v78.769231H78.769231zM78.769231 157.538462h78.769231v78.76923H78.769231zM78.769231 78.769231h78.769231v78.769231H78.769231zM78.769231 0h78.769231v78.769231H78.769231zM0 630.153846h78.769231v78.769231H0zM0 551.384615h78.769231v78.769231H0zM0 472.615385h78.769231v78.76923H0zM0 393.846154h78.769231v78.769231H0zM0 315.076923h78.769231v78.769231H0zM157.538462 945.230769h78.76923v78.769231H157.538462zM236.307692 945.230769h78.769231v78.769231h-78.769231zM315.076923 945.230769h78.769231v78.769231h-78.769231zM393.846154 945.230769h78.769231v78.769231h-78.769231z" fill="#1E2028" p-id="9051"></path><path d="M236.307692 866.461538h78.769231v78.769231h-78.769231z" fill="#AAF2C7" p-id="9052"></path><path d="M315.076923 866.461538h78.769231v78.769231h-78.769231zM393.846154 866.461538h78.769231v78.769231h-78.769231zM551.384615 866.461538h78.769231v78.769231h-78.769231zM630.153846 866.461538h78.769231v78.769231h-78.769231z" fill="#60EF9A" p-id="9053"></path><path d="M708.923077 866.461538h78.769231v78.769231h-78.769231z" fill="#38B269" p-id="9054"></path><path d="M472.615385 945.230769h78.76923v78.769231h-78.76923zM551.384615 945.230769h78.769231v78.769231h-78.769231zM630.153846 945.230769h78.769231v78.769231h-78.769231zM708.923077 945.230769h78.769231v78.769231h-78.769231zM787.692308 945.230769h78.76923v78.769231h-78.76923z" fill="#1E2028" p-id="9055"></path></svg>